<svg xmlns="http://www.w3.org/2000/svg" viewBox="0 0 720 128" role="img" aria-label="Fiche de club sans texte">
  <defs>
    <linearGradient id="paper" x1="0" x2="1" y1="0" y2="1"><stop stop-color="#1b1e20"/><stop offset="1" stop-color="#0c1112"/></linearGradient>
    <linearGradient id="stub" x1="0" x2="1"><stop stop-color="#f3f0e5"/><stop offset="1" stop-color="#b7b9b6"/></linearGradient>
    <pattern id="hatch" width="7" height="7" patternUnits="userSpaceOnUse" patternTransform="rotate(25)"><path d="M0 0V7" stroke="#fff" stroke-opacity=".04" stroke-width="2"/></pattern>
  </defs>
  <path d="M18 4H702V48a16 16 0 0 0 0 32v44H18V80a16 16 0 0 0 0-32Z" fill="url(#paper)" stroke="#7d8787" stroke-width="4"/>
  <path d="M18 4H128V124H18V80a16 16 0 0 0 0-32Z" fill="url(#stub)"/>
  <path d="M128 7V121" stroke="#8f9695" stroke-width="3" stroke-dasharray="6 7"/>
  <path d="M132 6H698V122H132Z" fill="url(#hatch)"/>
  <g fill="none" stroke="#a2aca9" stroke-width="4" stroke-linejoin="round" opacity=".55"><path d="m645 30-16 9-8-7-13 8v44h53V40l-13-8-8 7-15-9"/><path d="M629 39q14 11 19 0"/></g>
</svg>
